<svg
  width="38"
  height="39"
  viewBox="0 0 38 39"
  fill="none"
  xmlns="http://www.w3.org/2000/svg"
>
  <rect x="0.5" y="1.382" width="37" height="37" rx="18.5" fill="white" />
  <rect
    x="0.5"
    y="1.382"
    width="37"
    height="37"
    rx="18.5"
    stroke="url(#paint0_linear_2162_28540)"
  />
  <path
    fill-rule="evenodd"
    clip-rule="evenodd"
    d="M23 10.882H15C12.2386 10.882 10 13.1206 10 15.882V23.882C10 26.6434 12.2386 28.882 15 28.882H23C25.7614 28.882 28 26.6434 28 23.882V15.882C28 13.1206 25.7614 10.882 23 10.882ZM26.25 23.882C26.2445 25.6747 24.7926 27.1265 23 27.132H15C13.2074 27.1265 11.7555 25.6747 11.75 23.882V15.882C11.7555 14.0894 13.2074 12.6375 15 12.632H23C24.7926 12.6375 26.2445 14.0894 26.25 15.882V23.882ZM23.75 16.132C24.3023 16.132 24.75 15.6843 24.75 15.132C24.75 14.5797 24.3023 14.132 23.75 14.132C23.1977 14.132 22.75 14.5797 22.75 15.132C22.75 15.6843 23.1977 16.132 23.75 16.132ZM19 15.382C16.5147 15.382 14.5 17.3967 14.5 19.882C14.5 22.3673 16.5147 24.382 19 24.382C21.4853 24.382 23.5 22.3673 23.5 19.882C23.5027 18.6877 23.0294 17.5416 22.1849 16.6971C21.3404 15.8526 20.1943 15.3793 19 15.382ZM16.25 19.882C16.25 21.4008 17.4812 22.632 19 22.632C20.5188 22.632 21.75 21.4008 21.75 19.882C21.75 18.3632 20.5188 17.132 19 17.132C17.4812 17.132 16.25 18.3632 16.25 19.882Z"
    fill="url(#paint1_linear_2162_28540)"
  />
  <defs>
    <linearGradient
      id="paint0_linear_2162_28540"
      x1="19"
      y1="0.882004"
      x2="19"
      y2="38.882"
      gradientUnits="userSpaceOnUse"
    >
      <stop stop-color="#9D47B0" />
      <stop offset="0.51" stop-color="#D9398B" />
      <stop offset="1" stop-color="#F9A550" />
    </linearGradient>
    <linearGradient
      id="paint1_linear_2162_28540"
      x1="19"
      y1="10.882"
      x2="19"
      y2="28.882"
      gradientUnits="userSpaceOnUse"
    >
      <stop stop-color="#9D47B0" />
      <stop offset="0.51" stop-color="#D9398B" />
      <stop offset="1" stop-color="#F9A550" />
    </linearGradient>
  </defs>
</svg>
