<svg
  width="38"
  height="39"
  viewBox="0 0 38 39"
  fill="none"
  xmlns="http://www.w3.org/2000/svg"
>
  <rect x="0.5" y="1.382" width="37" height="37" rx="18.5" fill="white" />
  <rect x="0.5" y="1.382" width="37" height="37" rx="18.5" stroke="#0077FF" />
  <path
    d="M27.3193 24.4049C27.351 24.5164 27.3296 24.6363 27.2611 24.7298C27.1931 24.8228 27.0853 24.8784 26.9702 24.8797H24.4767C24.1655 24.8803 23.8801 24.7068 23.7369 24.4299C23.4101 23.7806 22.9901 23.1828 22.4902 22.6557C22.3202 22.4747 22.0814 22.3748 21.8335 22.3808H21.5011C21.279 22.3736 21.0644 22.4614 20.9109 22.6224C20.7554 22.7796 20.6686 22.9924 20.6699 23.2138V24.0467C20.6699 24.5068 20.2978 24.8797 19.8387 24.8797H18.9577C14.6273 24.8797 11.045 17.2498 10.6959 16.2253C10.6461 16.1074 10.6614 15.972 10.7361 15.8681C10.8108 15.7643 10.9342 15.7071 11.0616 15.7172H13.5551C13.8681 15.7181 14.154 15.8952 14.2948 16.1753C14.8586 17.2343 15.5033 18.248 16.2232 19.2073C16.3841 19.4224 16.6644 19.5101 16.919 19.4251C17.1735 19.3401 17.3452 19.1013 17.3452 18.8324V16.9416C17.3348 16.4667 17.0583 16.0382 16.6304 15.8338C16.5741 15.8007 16.5358 15.7438 16.5261 15.6791C16.5164 15.6144 16.5364 15.5488 16.5806 15.5006C17.0874 15.0656 17.743 14.8446 18.4091 14.8842H19.4232C20.1117 14.8842 20.6699 15.4436 20.6699 16.1337V18.216C20.6699 18.6761 21.042 19.049 21.5011 19.049C21.7745 19.0532 22.0324 18.9224 22.191 18.6992C22.7644 17.907 23.2757 17.0716 23.7203 16.2003C23.8625 15.9175 24.1524 15.74 24.4684 15.7422H26.9619C27.0696 15.7427 27.1708 15.7943 27.2346 15.8813C27.2985 15.9682 27.3176 16.0804 27.286 16.1836C26.7725 17.5711 26.0885 18.889 25.2497 20.1068C25.0977 20.34 25.1181 20.6457 25.2995 20.8565C26.1734 21.891 26.8572 23.0727 27.3193 24.3466V24.4049Z"
    fill="#0077FF"
  />
</svg>
