<svg
  width="38"
  height="39"
  viewBox="0 0 38 39"
  fill="none"
  xmlns="http://www.w3.org/2000/svg"
>
  <rect x="0.5" y="1.382" width="37" height="37" rx="18.5" fill="white" />
  <rect x="0.5" y="1.382" width="37" height="37" rx="18.5" stroke="#00D054" />
  <path
    fill-rule="evenodd"
    clip-rule="evenodd"
    d="M25.3619 13.6616C23.7211 12.0189 21.5391 11.1138 19.2142 11.1129C14.424 11.1129 10.5253 15.0113 10.5234 19.8029C10.5228 21.3347 10.923 22.8298 11.6835 24.1477L10.4506 28.6512L15.0577 27.4427C16.327 28.135 17.7562 28.5 19.2108 28.5005H19.2143C19.214 28.5005 19.2146 28.5005 19.2143 28.5005C24.004 28.5005 27.903 24.6017 27.905 19.8099C27.9059 17.4877 27.0027 15.3042 25.3619 13.6616ZM19.2143 27.0327H19.2113C17.9152 27.0322 16.6439 26.684 15.5349 26.0259L15.2711 25.8693L12.5372 26.5865L13.267 23.921L13.0952 23.6476C12.3721 22.4976 11.9903 21.1683 11.9908 19.8034C11.9924 15.8208 15.2328 12.5807 19.2172 12.5807C21.1465 12.5813 22.9602 13.3336 24.324 14.699C25.6878 16.0644 26.4384 17.8792 26.4376 19.8093C26.436 23.7923 23.1956 27.0327 19.2143 27.0327Z"
    fill="#00D054"
  />
  <path
    fill-rule="evenodd"
    clip-rule="evenodd"
    d="M23.1765 21.6228C22.9593 21.5141 21.8917 20.9888 21.6927 20.9163C21.4936 20.8439 21.3488 20.8076 21.2041 21.025C21.0594 21.2423 20.6432 21.7315 20.5165 21.8765C20.3899 22.0213 20.2631 22.0396 20.046 21.9308C19.8289 21.8221 19.1292 21.5928 18.2998 20.853C17.6542 20.2771 17.2184 19.5661 17.0917 19.3486C16.9651 19.1313 17.0782 19.0138 17.187 18.9055C17.2846 18.8082 17.4041 18.6519 17.5127 18.525C17.6213 18.3983 17.6575 18.3076 17.7298 18.1628C17.8022 18.0179 17.7661 17.891 17.7118 17.7824C17.6575 17.6737 17.2232 16.6048 17.0422 16.17C16.8659 15.7466 16.6869 15.804 16.5536 15.7972C16.4271 15.7909 16.2822 15.7896 16.1374 15.7896C15.9927 15.7896 15.7574 15.844 15.5584 16.0613C15.3594 16.2787 14.7983 16.8041 14.7983 17.8729C14.7983 18.9417 15.5765 19.9743 15.685 20.1192C15.7936 20.2642 17.2163 22.4575 19.3946 23.3981C19.9127 23.6219 20.3172 23.7555 20.6325 23.8555C21.1527 24.0208 21.6261 23.9975 22.0003 23.9416C22.4175 23.8792 23.2851 23.4163 23.466 22.9091C23.647 22.4018 23.647 21.967 23.5927 21.8764C23.5384 21.7859 23.3936 21.7315 23.1765 21.6228Z"
    fill="#00D054"
  />
</svg>
