<svg xmlns="http://www.w3.org/2000/svg" style="display: none">
  <symbol id="icon-arrow-down" viewBox="0 0 10 6">
    <path
      d="M8.19995 1.28201L4.99995 4.48201L1.79995 1.28201"
      stroke-linecap="round"
      stroke-linejoin="round"
      fill="none"
    />
  </symbol>

  <symbol id="location" viewBox="0 0 16 18" fill="none">
    <path
      d="M8.00001 16.882C8.00001 16.882 14.2609 11.3168 14.2609 7.14287C14.2609 3.68509 11.4578 0.882004 8.00001 0.882004C4.54222 0.882004 1.73914 3.68509 1.73914 7.14287C1.73914 11.3168 8.00001 16.882 8.00001 16.882Z"
      stroke="#182641"
      stroke-width="1.5"
    />
    <path
      d="M10.0003 6.88213C10.0003 7.9867 9.10483 8.88213 8.00026 8.88213C6.89569 8.88213 6.00026 7.9867 6.00026 6.88213C6.00026 5.77756 6.89569 4.88213 8.00026 4.88213C9.10483 4.88213 10.0003 5.77756 10.0003 6.88213Z"
      stroke="#182641"
      stroke-width="1.5"
    />
  </symbol>

  <symbol id="house" viewBox="0 0 16 16" fill="none">
    <path
      d="M5.86664 14.282V9.4129C5.86664 8.96471 6.24869 8.60139 6.71998 8.60139H9.27998C9.75126 8.60139 10.1333 8.96471 10.1333 9.4129V14.282M7.50545 1.63217L1.95878 5.38318C1.73368 5.53541 1.59998 5.78185 1.59998 6.04453V13.0647C1.59998 13.737 2.17305 14.282 2.87998 14.282H13.12C13.8269 14.282 14.4 13.737 14.4 13.0647V6.04453C14.4 5.78184 14.2663 5.53541 14.0412 5.38318L8.4945 1.63217C8.19843 1.43195 7.80152 1.43195 7.50545 1.63217Z"
      stroke-width="1.5"
      stroke-linecap="round"
    />
  </symbol>

  <symbol id="letter" viewBox="0 0 16 12" fill="none">
    <path
      d="M2.39998 1.95157L7.99997 6.35157L14 1.95157M5.99997 6.2849L2.39998 9.95157M13.6 9.61824L9.59997 5.95157M3.19998 10.6124C2.31632 10.6124 1.59998 9.8961 1.59998 9.01244V2.75157C1.59998 1.86791 2.31632 1.15157 3.19998 1.15157H12.8C13.6836 1.15157 14.4 1.86791 14.4 2.75157V9.01244C14.4 9.89609 13.6836 10.6124 12.8 10.6124H3.19998Z"
      stroke-width="1.5"
      stroke-linecap="round"
      stroke-linejoin="round"
    />
  </symbol>

  <symbol id="phone" viewBox="0 0 12 13">
    <path
      d="M11.7755 11.396C11.7755 11.396 11.0031 12.1547 10.8138 12.3771C10.5054 12.7061 10.1421 12.8615 9.66584 12.8615C9.62004 12.8615 9.57119 12.8615 9.52539 12.8585C8.61861 12.8006 7.77595 12.4472 7.14395 12.1455C5.41588 11.3107 3.89847 10.1254 2.63753 8.6233C1.59641 7.37103 0.900296 6.21321 0.439273 4.97008C0.155331 4.2114 0.0515247 3.6203 0.0973217 3.06272C0.127853 2.70623 0.265244 2.41069 0.518654 2.15779L1.55977 1.1188C1.70938 0.978646 1.86814 0.902473 2.02385 0.902473C2.2162 0.902473 2.3719 1.01826 2.46961 1.11576C2.47266 1.1188 2.47571 1.12185 2.47876 1.1249C2.66501 1.29857 2.84209 1.47834 3.02833 1.67029C3.12298 1.76779 3.22068 1.86529 3.31838 1.96584L4.15188 2.79764C4.47551 3.12061 4.47551 3.41921 4.15188 3.74218C4.06334 3.83054 3.97785 3.9189 3.88931 4.00421C3.63285 4.26624 3.83432 4.06519 3.56869 4.30285C3.56259 4.30894 3.55648 4.31199 3.55343 4.31808C3.29086 4.58011 3.33971 4.83605 3.39466 5.00973C3.39772 5.01887 3.40077 5.02801 3.40382 5.03715C3.6206 5.56121 3.92591 6.05481 4.38998 6.64286L4.39304 6.64591C5.2357 7.68185 6.12416 8.48928 7.10422 9.1078C7.2294 9.18702 7.35763 9.251 7.47975 9.31194C7.58967 9.36678 7.69347 9.41858 7.78201 9.47342C7.79423 9.47952 7.80644 9.48866 7.81865 9.49475C7.92246 9.54655 8.02016 9.57092 8.12091 9.57092C8.37432 9.57092 8.53308 9.41249 8.58499 9.36069L9.18344 8.76346C9.28725 8.65986 9.45212 8.53494 9.64447 8.53494C9.83376 8.53494 9.98947 8.65377 10.0841 8.75736C10.0872 8.76041 10.0872 8.76041 10.0902 8.76346L11.7725 10.4423C12.087 10.7531 11.7755 11.396 11.7755 11.396Z"
    />
  </symbol>

  <symbol id="search" viewBox="0 0 16 17" fill="none">
    <path
      d="M12.1057 13.082L15 15.882M7.5 4.882C9.15685 4.882 10.5 6.22515 10.5 7.882M14.0667 8.41534C14.0667 12.0236 11.1416 14.9487 7.53333 14.9487C3.92507 14.9487 1 12.0236 1 8.41534C1 4.80708 3.92507 1.882 7.53333 1.882C11.1416 1.882 14.0667 4.80708 14.0667 8.41534Z"
      stroke="#182641"
      stroke-width="2"
      stroke-linecap="round"
    />
  </symbol>

  <symbol id="catalog" viewBox="0 0 16 17" fill="none">
    <path
      d="M9.2001 13.564H1.6001M14.4001 8.764H1.6001M14.4001 3.964H1.6001"
      stroke="white"
      stroke-width="2"
      stroke-linecap="round"
    />
  </symbol>

  <symbol
    id="favorites"
    viewBox="0 0 12 15"
    fill="none"
    xmlns="http://www.w3.org/2000/svg"
  >
    <path
      d="M1.32495 2.36401C1.32495 1.81173 1.77267 1.36401 2.32495 1.36401H9.92495C10.4772 1.36401 10.925 1.81173 10.925 2.36401V13.0965C10.925 13.5204 10.4305 13.752 10.1049 13.4806L6.12495 10.164L2.14504 13.4806C1.81938 13.752 1.32495 13.5204 1.32495 13.0965V2.36401Z"
      stroke="white"
      stroke-width="1.5"
      stroke-linejoin="round"
    />
  </symbol>

  <symbol
    id="comparison"
    viewBox="0 0 17 17"
    fill="none"
    xmlns="http://www.w3.org/2000/svg"
  >
    <path
      d="M1.97498 14.564V6.03067M6.24164 14.564V9.58623M10.5083 14.564V2.964M14.775 14.564V6.03067"
      stroke="white"
      stroke-width="1.5"
      stroke-linecap="round"
      stroke-linejoin="round"
    />
  </symbol>

  <symbol
    id="cart"
    viewBox="0 0 17 17"
    fill="none"
    xmlns="http://www.w3.org/2000/svg"
  >
    <path
      d="M2.22498 2.00916C1.81076 2.00916 1.47498 2.34494 1.47498 2.75916C1.47498 3.17337 1.81076 3.50916 2.22498 3.50916V2.00916ZM3.75333 2.75916L4.47725 2.56309C4.38871 2.23617 4.09204 2.00916 3.75333 2.00916V2.75916ZM6.23692 11.9293L5.513 12.1254C5.6107 12.4861 5.95909 12.7199 6.32994 12.6735L6.23692 11.9293ZM13.8787 10.9741L13.9717 11.7183C14.2902 11.6785 14.5481 11.4404 14.6131 11.126L13.8787 10.9741ZM15.025 5.43378L15.7594 5.58574C15.8051 5.36485 15.749 5.13513 15.6066 4.96021C15.4641 4.7853 15.2505 4.68378 15.025 4.68378V5.43378ZM4.47771 5.43378L3.75379 5.62984L4.47771 5.43378ZM2.22498 3.50916H3.75333V2.00916H2.22498V3.50916ZM6.32994 12.6735L13.9717 11.7183L13.7857 10.2299L6.14389 11.1851L6.32994 12.6735ZM14.6131 11.126L15.7594 5.58574L14.2905 5.28183L13.1443 10.8221L14.6131 11.126ZM3.02941 2.95522L3.75379 5.62984L5.20163 5.23772L4.47725 2.56309L3.02941 2.95522ZM3.75379 5.62984L5.513 12.1254L6.96083 11.7332L5.20163 5.23772L3.75379 5.62984ZM15.025 4.68378H4.47771V6.18378H15.025V4.68378ZM7.87498 14.4307C7.87498 14.5687 7.76305 14.6807 7.62498 14.6807V16.1807C8.59147 16.1807 9.37498 15.3972 9.37498 14.4307H7.87498ZM7.62498 14.6807C7.4869 14.6807 7.37498 14.5687 7.37498 14.4307H5.87498C5.87498 15.3972 6.65848 16.1807 7.62498 16.1807V14.6807ZM7.37498 14.4307C7.37498 14.2926 7.4869 14.1807 7.62498 14.1807V12.6807C6.65848 12.6807 5.87498 13.4642 5.87498 14.4307H7.37498ZM7.62498 14.1807C7.76305 14.1807 7.87498 14.2926 7.87498 14.4307H9.37498C9.37498 13.4642 8.59147 12.6807 7.62498 12.6807V14.1807ZM13.2083 14.4307C13.2083 14.5687 13.0964 14.6807 12.9583 14.6807V16.1807C13.9248 16.1807 14.7083 15.3972 14.7083 14.4307H13.2083ZM12.9583 14.6807C12.8202 14.6807 12.7083 14.5687 12.7083 14.4307H11.2083C11.2083 15.3972 11.9918 16.1807 12.9583 16.1807V14.6807ZM12.7083 14.4307C12.7083 14.2926 12.8202 14.1807 12.9583 14.1807V12.6807C11.9918 12.6807 11.2083 13.4642 11.2083 14.4307H12.7083ZM12.9583 14.1807C13.0964 14.1807 13.2083 14.2926 13.2083 14.4307H14.7083C14.7083 13.4642 13.9248 12.6807 12.9583 12.6807V14.1807Z"
      fill="white"
    />
  </symbol>

  <symbol
    id="login"
    viewBox="0 0 17 17"
    fill="none"
    xmlns="http://www.w3.org/2000/svg"
  >
    <path
      d="M2.47498 14.439C2.47498 11.9219 4.57783 9.88147 8.87497 9.88147C13.1721 9.88147 15.275 11.9219 15.275 14.439C15.275 14.8394 14.9828 15.164 14.6224 15.164H3.12752C2.76713 15.164 2.47498 14.8394 2.47498 14.439Z"
      stroke="white"
      stroke-width="1.5"
    />
    <path
      d="M11.275 4.76401C11.275 6.0895 10.2005 7.16401 8.87497 7.16401C7.54949 7.16401 6.47498 6.0895 6.47498 4.76401C6.47498 3.43853 7.54949 2.36401 8.87497 2.36401C10.2005 2.36401 11.275 3.43853 11.275 4.76401Z"
      stroke="white"
      stroke-width="1.5"
    />
  </symbol>

  <symbol id="arrow-left" viewBox="0 0 16 14" fill="none">
    <path
      d="M6.83333 13L1 7M1 7L6.83333 1M1 7H15"
      stroke-width="2"
      stroke-linecap="round"
      stroke-linejoin="round"
    />
  </symbol>
  <symbol id="arrow-right" viewBox="0 0 16 14" fill="none">
    <path
      d="M9.16667 1L15 7M15 7L9.16667 13M15 7L1 7"
      stroke="#182641"
      stroke-width="2"
      stroke-linecap="round"
      stroke-linejoin="round"
    />
  </symbol>

  <symbol id="arrow-left-bg" viewBox="0 0 63 130" fill="none">
    <path
      d="M0.031746 0.499998C0.031746 17.8882 14.1277 31.9841 31.5159 31.9841C48.9041 31.9841 63 46.0801 63 63.4683V66.5317C63 83.9199 48.9041 98.0159 31.5159 98.0159C14.1277 98.0159 0.031746 112.112 0.031746 129.5V130H0V0H0.031746V0.499998Z"
      fill="#F2F5F8"
    />
  </symbol>

  <symbol id="arrow-right-bg" viewBox="0 0 63 130" fill="none">
    <path
      d="M62.9683 0.499998C62.9683 17.8882 48.8723 31.9841 31.4841 31.9841C14.0959 31.9841 0 46.0801 0 63.4683V66.5317C0 83.9199 14.0959 98.0159 31.4841 98.0159C48.8723 98.0159 62.9683 112.112 62.9683 129.5V130H63V0H62.9683V0.499998Z"
      fill="#F2F5F8"
    />
  </symbol>

  <symbol
    id="close"
    viewBox="0 0 16 16"
    fill="none"
    xmlns="http://www.w3.org/2000/svg"
  >
    <path d="M15 1L1 15M15 15L1 1" stroke-width="2" stroke-linecap="round" />
  </symbol>

  <symbol id="skrepka" width="15" height="13" viewBox="0 0 15 13" fill="none">
    <path
      d="M11.1736 3.92199L6.44031 8.65523C5.87748 9.21806 4.96494 9.21806 4.40211 8.65523C3.8381 8.09122 3.83945 7.17635 4.40513 6.61401L8.07562 2.96519L8.9974 2.04341C10.119 0.921851 11.9374 0.921852 13.0589 2.04341C14.1805 3.16497 14.1805 4.98337 13.0589 6.10493L12.151 7.01285L8.71 10.4539C6.93005 12.308 4.23297 12.5901 2.34723 10.7798C0.484587 8.99165 0.8003 6.31081 2.68363 4.42748L6.11108 0.999512"
      stroke-width="1.5"
      stroke-linecap="round"
      stroke-linejoin="round"
    />
  </symbol>

  <symbol id="close" width="16" height="16" viewBox="0 0 16 16" fill="none">
    <path d="M15 1L1 15M15 15L1 1" stroke-width="2" stroke-linecap="round" />
  </symbol>

  <symbol id="burger" width="19" height="14" viewBox="0 0 22 18" fill="none">
    <path
      d="M20.6 16.2H1.40002M20.6 9H1.40002M20.6 1.8H1.40002"
      stroke="#182641"
      stroke-width="2"
      stroke-linecap="round"
    />
  </symbol>
</svg>
