<svg xmlns="http://www.w3.org/2000/svg" style="display: none">
  <symbol id="icon-arrow-down" viewBox="0 0 10 6">
    <path
      d="M8.19995 1.28201L4.99995 4.48201L1.79995 1.28201"
      stroke="#182641"
      stroke-width="2"
      stroke-linecap="round"
      stroke-linejoin="round"
      fill="none"
    />
  </symbol>

  <symbol id="location" viewBox="0 0 16 18" fill="none">
    <path
      d="M8.00001 16.882C8.00001 16.882 14.2609 11.3168 14.2609 7.14287C14.2609 3.68509 11.4578 0.882004 8.00001 0.882004C4.54222 0.882004 1.73914 3.68509 1.73914 7.14287C1.73914 11.3168 8.00001 16.882 8.00001 16.882Z"
      stroke="#182641"
      stroke-width="1.5"
    />
    <path
      d="M10.0003 6.88213C10.0003 7.9867 9.10483 8.88213 8.00026 8.88213C6.89569 8.88213 6.00026 7.9867 6.00026 6.88213C6.00026 5.77756 6.89569 4.88213 8.00026 4.88213C9.10483 4.88213 10.0003 5.77756 10.0003 6.88213Z"
      stroke="#182641"
      stroke-width="1.5"
    />
  </symbol>

  <symbol id="house" viewBox="0 0 16 16" fill="none">
    <path
      d="M5.86664 14.282V9.4129C5.86664 8.96471 6.24869 8.60139 6.71998 8.60139H9.27998C9.75126 8.60139 10.1333 8.96471 10.1333 9.4129V14.282M7.50545 1.63217L1.95878 5.38318C1.73368 5.53541 1.59998 5.78185 1.59998 6.04453V13.0647C1.59998 13.737 2.17305 14.282 2.87998 14.282H13.12C13.8269 14.282 14.4 13.737 14.4 13.0647V6.04453C14.4 5.78184 14.2663 5.53541 14.0412 5.38318L8.4945 1.63217C8.19843 1.43195 7.80152 1.43195 7.50545 1.63217Z"
      stroke="#182641"
      stroke-width="1.5"
      stroke-linecap="round"
    />
  </symbol>

  <symbol id="letter" viewBox="0 0 16 12" fill="none">
    <path
      d="M2.39998 1.95157L7.99997 6.35157L14 1.95157M5.99997 6.2849L2.39998 9.95157M13.6 9.61824L9.59997 5.95157M3.19998 10.6124C2.31632 10.6124 1.59998 9.8961 1.59998 9.01244V2.75157C1.59998 1.86791 2.31632 1.15157 3.19998 1.15157H12.8C13.6836 1.15157 14.4 1.86791 14.4 2.75157V9.01244C14.4 9.89609 13.6836 10.6124 12.8 10.6124H3.19998Z"
      stroke="#182641"
      stroke-width="1.5"
      stroke-linecap="round"
      stroke-linejoin="round"
    />
  </symbol>

  <symbol id="phone" viewBox="0 0 12 13" fill="none">
    <path
      d="M11.7755 11.396C11.7755 11.396 11.0031 12.1547 10.8138 12.3771C10.5054 12.7061 10.1421 12.8615 9.66584 12.8615C9.62004 12.8615 9.57119 12.8615 9.52539 12.8585C8.61861 12.8006 7.77595 12.4472 7.14395 12.1455C5.41588 11.3107 3.89847 10.1254 2.63753 8.6233C1.59641 7.37103 0.900296 6.21321 0.439273 4.97008C0.155331 4.2114 0.0515247 3.6203 0.0973217 3.06272C0.127853 2.70623 0.265244 2.41069 0.518654 2.15779L1.55977 1.1188C1.70938 0.978646 1.86814 0.902473 2.02385 0.902473C2.2162 0.902473 2.3719 1.01826 2.46961 1.11576C2.47266 1.1188 2.47571 1.12185 2.47876 1.1249C2.66501 1.29857 2.84209 1.47834 3.02833 1.67029C3.12298 1.76779 3.22068 1.86529 3.31838 1.96584L4.15188 2.79764C4.47551 3.12061 4.47551 3.41921 4.15188 3.74218C4.06334 3.83054 3.97785 3.9189 3.88931 4.00421C3.63285 4.26624 3.83432 4.06519 3.56869 4.30285C3.56259 4.30894 3.55648 4.31199 3.55343 4.31808C3.29086 4.58011 3.33971 4.83605 3.39466 5.00973C3.39772 5.01887 3.40077 5.02801 3.40382 5.03715C3.6206 5.56121 3.92591 6.05481 4.38998 6.64286L4.39304 6.64591C5.2357 7.68185 6.12416 8.48928 7.10422 9.1078C7.2294 9.18702 7.35763 9.251 7.47975 9.31194C7.58967 9.36678 7.69347 9.41858 7.78201 9.47342C7.79423 9.47952 7.80644 9.48866 7.81865 9.49475C7.92246 9.54655 8.02016 9.57092 8.12091 9.57092C8.37432 9.57092 8.53308 9.41249 8.58499 9.36069L9.18344 8.76346C9.28725 8.65986 9.45212 8.53494 9.64447 8.53494C9.83376 8.53494 9.98947 8.65377 10.0841 8.75736C10.0872 8.76041 10.0872 8.76041 10.0902 8.76346L11.7725 10.4423C12.087 10.7531 11.7755 11.396 11.7755 11.396Z"
      fill="#182641"
    />
  </symbol>

  <symbol id="search" viewBox="0 0 16 17" fill="none">
    <path
      d="M12.1057 13.082L15 15.882M7.5 4.882C9.15685 4.882 10.5 6.22515 10.5 7.882M14.0667 8.41534C14.0667 12.0236 11.1416 14.9487 7.53333 14.9487C3.92507 14.9487 1 12.0236 1 8.41534C1 4.80708 3.92507 1.882 7.53333 1.882C11.1416 1.882 14.0667 4.80708 14.0667 8.41534Z"
      stroke="#182641"
      stroke-width="2"
      stroke-linecap="round"
    />
  </symbol>
</svg>
